FILE "C:\TRACK1.WAV" WAVE
  TRACK 01 AUDIO
    INDEX 01 00:00:00
FILE "C:\TRACK2.WAV" WAVE
  TRACK 02 AUDIO
    INDEX 01 00:00:00
FILE "C:\TRACK1.AIF" AIFF
  TRACK 03 AUDIO
    INDEX 01 00:00:00
FILE "C:\TRACK2.AIF" AIFF
  TRACK 04 AUDIO
    INDEX 01 00:00:00
FILE "C:\TRACK1.MP3" MP3
  TRACK 05 AUDIO
    INDEX 01 00:00:00
FILE "C:\TRACK2.MP3" MP3
  TRACK 06 AUDIO
    INDEX 01 00:00:00